<svg width="24" height="24" viewBox="0 0 24 24" fill="none" xmlns="http://www.w3.org/2000/svg">
<path d="M20.6869 10.6824H19.9304V10.6434H11.4782V14.3999H16.7857C16.0114 16.5867 13.9308 18.1565 11.4782 18.1565C8.36641 18.1565 5.84343 15.6335 5.84343 12.5217C5.84343 9.40987 8.36641 6.88689 11.4782 6.88689C12.9146 6.88689 14.2214 7.42877 15.2164 8.3139L17.8728 5.65757C16.1955 4.09439 13.9519 3.13037 11.4782 3.13037C6.29187 3.13037 2.08691 7.33533 2.08691 12.5217C2.08691 17.708 6.29187 21.913 11.4782 21.913C16.6646 21.913 20.8695 17.708 20.8695 12.5217C20.8695 11.892 20.8047 11.2773 20.6869 10.6824Z" fill="#FFC107"/>
<path d="M3.16943 8.15049L6.25494 10.4133C7.08983 8.3463 9.11178 6.88689 11.4779 6.88689C12.9143 6.88689 14.2211 7.42877 15.2161 8.3139L17.8725 5.65757C16.1952 4.09439 13.9516 3.13037 11.4779 3.13037C7.87072 3.13037 4.74248 5.16687 3.16943 8.15049Z" fill="#FF3D00"/>
<path d="M11.4783 21.913C13.9041 21.913 16.1082 20.9846 17.7747 19.475L14.8681 17.0154C13.8935 17.7566 12.7027 18.1574 11.4783 18.1565C9.0356 18.1565 6.96154 16.5989 6.18018 14.4253L3.11768 16.7849C4.67194 19.8262 7.82835 21.913 11.4783 21.913Z" fill="#4CAF50"/>
<path d="M20.6867 10.6825H19.9302V10.6436H11.478V14.4001H16.7855C16.4151 15.4408 15.7479 16.3503 14.8664 17.016L14.8678 17.0151L17.7744 19.4747C17.5688 19.6616 20.8693 17.2175 20.8693 12.5218C20.8693 11.8921 20.8045 11.2775 20.6867 10.6825Z" fill="#1976D2"/>
</svg>
